<svg width="1329" height="56" viewBox="0 0 1329 56" fill="none" xmlns="http://www.w3.org/2000/svg">
<g opacity="0.4">
<path d="M22.4029 15.3643L0 37.7672H11.2014L13.9982 34.9704H33.6043L27.9964 29.3769H19.6061L28.0108 20.9722L22.4029 15.3643Z" fill="white"/>
<path d="M22.4029 15.3643L16.8093 20.9578L33.6043 37.7527H44.8057L22.4029 15.3643Z" fill="white"/>
<path d="M61.6008 9.77057L50.3993 20.972L44.8058 15.3785H33.6044L44.8058 26.5799L25.142 46.2293H36.3435L50.3993 32.1734L55.9929 37.7669H67.1943L55.9929 26.5655L72.8023 9.77057H61.6008Z" fill="white"/>
<path d="M78.4101 15.3643L56.0072 37.7672H67.2087L78.4101 26.5657L89.6116 37.7672L112 15.3643H100.799L89.5972 26.5657L78.4101 15.3643Z" fill="white"/>
<path d="M70.0054 37.7671H86.8004L78.4101 29.3768L70.0054 37.7671Z" fill="white"/>
<path d="M81.2068 37.7671H86.8003L78.4101 29.3768L81.2068 37.7671Z" fill="white"/>
<path d="M248.275 21.3773C246.253 21.3773 243.953 22.3147 242.548 24.1916L242.549 24.188L242.548 24.1889L242.549 21.6719H237.725V39.2374H242.548V29.2424C242.548 27.4437 243.942 25.5313 246.525 25.5313C248.521 25.5313 250.586 26.9196 250.586 29.2424V39.2374H255.409V28.3487C255.409 24.3086 252.519 21.3773 248.275 21.3773V21.3773ZM289.691 21.6728L285.331 33.6378L280.97 21.6728H275.46L282.687 39.2326H287.973L295.2 21.6728H289.691ZM223.325 26.9644C224.147 25.8614 225.455 25.2138 227.035 25.2138C228.774 25.2138 230.092 26.2064 230.774 27.6717L222.347 31.1679C222.117 29.3737 222.576 27.9704 223.325 26.9644V26.9644ZM232.592 33.8369C230.562 35.3393 229.402 35.6977 227.551 35.6977C225.885 35.6977 224.58 35.1805 223.661 34.2734L235.992 29.1578C235.723 27.2516 234.999 25.5485 233.886 24.2536C232.266 22.372 229.868 21.3764 226.948 21.3764C221.644 21.3764 217.645 25.2889 217.645 30.4568C217.645 35.7586 221.654 39.536 227.48 39.536C230.744 39.536 234.081 37.9891 235.642 36.1817L232.592 33.8369ZM217.185 34.8085H206.223V16.4188H201.333V39.2374H217.185V34.8085ZM303.861 25.5098C301.168 25.5098 299.212 27.5511 299.212 30.455C299.212 33.2276 301.284 35.4002 303.926 35.4002C306.621 35.4002 308.575 33.3027 308.575 30.455C308.575 27.6824 306.505 25.5098 303.861 25.5098V25.5098ZM303.861 39.5336C298.586 39.5336 294.453 35.6036 294.453 30.455C294.453 25.3641 298.615 21.3764 303.926 21.3764C309.201 21.3764 313.333 25.3061 313.333 30.455C313.333 35.5448 309.172 39.5333 303.861 39.5333V39.5336ZM266.725 25.5098C264.031 25.5098 262.076 27.5511 262.076 30.455C262.076 33.2276 264.147 35.4002 266.791 35.4002C269.484 35.4002 271.439 33.3027 271.439 30.455C271.439 27.6824 269.368 25.5098 266.725 25.5098ZM266.725 39.5336C261.45 39.5336 257.318 35.6036 257.318 30.455C257.318 25.3641 261.478 21.3764 266.791 21.3764C272.065 21.3764 276.198 25.3061 276.198 30.455C276.198 35.5448 272.036 39.5333 266.725 39.5333" fill="white"/>
<path fill-rule="evenodd" clip-rule="evenodd" d="M438.498 36.158L439.895 32.91C441.405 34.039 443.417 34.6259 445.401 34.6259C446.866 34.6259 447.794 34.0614 447.794 33.2057C447.771 30.8134 439.017 32.686 438.95 26.6873C438.928 23.6409 441.634 21.2934 445.469 21.2934C447.749 21.2934 450.025 21.8579 451.651 23.1436L450.343 26.4588C448.855 25.5091 447.005 24.8326 445.245 24.8326C444.048 24.8326 443.26 25.3971 443.26 26.1184C443.282 28.4659 452.103 27.1801 452.193 32.91C452.193 36.0236 449.554 38.2143 445.764 38.2143C442.987 38.2099 440.438 37.5558 438.498 36.158V36.158ZM492.173 31.7363C491.474 32.9548 490.166 33.7881 488.651 33.7881C486.416 33.7881 484.615 31.9827 484.615 29.7516C484.615 27.5206 486.42 25.7152 488.651 25.7152C490.161 25.7152 491.474 26.5484 492.173 27.767L496.03 25.6256C494.587 23.054 491.81 21.2934 488.651 21.2934C483.979 21.2934 480.189 25.0835 480.189 29.7561C480.189 34.4287 483.979 38.2188 488.651 38.2188C491.832 38.2188 494.587 36.4806 496.03 33.8867L492.173 31.7363ZM454.133 14.2733H458.962V37.8963H454.133V14.2733ZM497.925 14.2733V37.8963H502.754V30.8089L508.484 37.8963H514.667L507.378 29.4784L514.125 21.6249H508.211L502.75 28.1433V14.2733H497.925Z" fill="white"/>
<path d="M473.312 31.7813C472.613 32.9326 471.17 33.7883 469.544 33.7883C467.309 33.7883 465.508 31.9829 465.508 29.7518C465.508 27.5208 467.313 25.7154 469.544 25.7154C471.17 25.7154 472.613 26.6158 473.312 27.7896V31.7813ZM473.312 21.6296V23.547C472.523 22.2165 470.561 21.2891 468.505 21.2891C464.262 21.2891 460.925 25.0344 460.925 29.7294C460.925 34.4245 464.262 38.2145 468.505 38.2145C470.557 38.2145 472.519 37.2917 473.312 35.9566V37.8741H478.141V21.6296H473.312Z" fill="white"/>
<path fill-rule="evenodd" clip-rule="evenodd" d="M408.647 31.7592C408.647 33.4079 407.317 34.7384 405.668 34.7384C404.019 34.7384 402.689 33.4034 402.689 31.7592C402.689 30.1151 404.019 28.78 405.668 28.78H408.647V31.7592ZM410.135 31.7592C410.135 30.1106 411.465 28.78 413.114 28.78C414.763 28.78 416.093 30.1106 416.093 31.7592V39.205C416.093 40.8537 414.763 42.1842 413.114 42.1842C411.465 42.1842 410.135 40.8537 410.135 39.205V31.7592Z" fill="white"/>
<path fill-rule="evenodd" clip-rule="evenodd" d="M413.114 19.8019C411.465 19.8019 410.135 18.4714 410.135 16.8227C410.135 15.1741 411.465 13.8435 413.114 13.8435C414.763 13.8435 416.093 15.1741 416.093 16.8227V19.8019H413.114ZM413.114 21.3117C414.763 21.3117 416.093 22.6422 416.093 24.2909C416.093 25.9395 414.763 27.2701 413.114 27.2701H405.646C403.997 27.2701 402.667 25.9351 402.667 24.2909C402.667 22.6467 403.997 21.3117 405.646 21.3117H413.114Z" fill="white"/>
<path fill-rule="evenodd" clip-rule="evenodd" d="M425.049 24.291C425.049 22.6423 426.379 21.3117 428.028 21.3117C429.677 21.3117 431.007 22.6423 431.007 24.291C431.007 25.9396 429.677 27.2702 428.028 27.2702H425.049V24.291ZM423.562 24.291C423.562 25.9396 422.231 27.2702 420.582 27.2702C418.934 27.2702 417.603 25.9396 417.603 24.291V16.8228C417.603 15.1741 418.934 13.8436 420.582 13.8436C422.231 13.8436 423.562 15.1741 423.562 16.8228V24.291Z" fill="white"/>
<path fill-rule="evenodd" clip-rule="evenodd" d="M420.582 36.2258C422.231 36.2258 423.562 37.5564 423.562 39.205C423.562 40.8537 422.231 42.1842 420.582 42.1842C418.934 42.1842 417.603 40.8537 417.603 39.205V36.2258H420.582ZM420.582 34.7384C418.934 34.7384 417.603 33.4079 417.603 31.7592C417.603 30.1106 418.934 28.78 420.582 28.78H428.05C429.699 28.78 431.03 30.1106 431.03 31.7592C431.03 33.4079 429.699 34.7384 428.05 34.7384H420.582Z" fill="white"/>
<path fill-rule="evenodd" clip-rule="evenodd" d="M635.816 16.2432C637.356 16.658 638.566 17.8683 638.975 19.4026C639.72 22.1869 639.72 28.0001 639.72 28.0001C639.72 28.0001 639.72 33.8131 638.975 36.5975C638.56 38.1374 637.35 39.3478 635.816 39.7569C633.031 40.5013 621.86 40.5013 621.86 40.5013C621.86 40.5013 610.694 40.5013 607.904 39.7569C606.364 39.3421 605.154 38.1318 604.744 36.5975C604 33.8131 604 28 604 28C604 28 604 22.1869 604.744 19.4026C605.159 17.8627 606.37 16.6523 607.904 16.2432C610.694 15.4987 621.86 15.4987 621.86 15.4987C621.86 15.4987 633.031 15.4987 635.816 16.2432ZM627.571 27.9999L618.291 33.3585V22.6415L627.571 27.9999Z" fill="white"/>
<path fill-rule="evenodd" clip-rule="evenodd" d="M655.846 38.2451C655.142 37.7679 654.636 37.0291 654.34 36.0234C654.045 35.0176 653.891 33.6822 653.891 32.0115V29.7386C653.891 28.051 654.062 26.6986 654.403 25.6756C654.744 24.6529 655.278 23.9086 656 23.4425C656.721 22.9766 657.67 22.738 658.846 22.738C660.006 22.738 660.932 22.9766 661.631 23.4539C662.33 23.9312 662.841 24.6756 663.165 25.6871C663.489 26.6986 663.648 28.051 663.648 29.7329V32.0059C663.648 33.6765 663.489 35.0176 663.176 36.029C662.864 37.0404 662.353 37.7849 661.642 38.2508C660.938 38.7167 659.977 38.9556 658.767 38.9556C657.528 38.9611 656.551 38.7225 655.846 38.2451V38.2451ZM659.807 35.7904C660 35.279 660.102 34.4436 660.102 33.2902V28.409C660.102 27.2838 660.006 26.4656 659.807 25.9428C659.614 25.4257 659.267 25.1643 658.773 25.1643C658.295 25.1643 657.96 25.4257 657.761 25.9428C657.568 26.4599 657.466 27.2838 657.466 28.409V33.2902C657.466 34.4493 657.557 35.2847 657.744 35.7904C657.932 36.3018 658.273 36.5575 658.767 36.5575C659.267 36.5575 659.608 36.3018 659.807 35.7904V35.7904ZM710.096 32.0513V32.8413C710.096 33.847 710.124 34.597 710.187 35.1028C710.244 35.6029 710.369 35.9722 710.556 36.1996C710.744 36.4268 711.034 36.5462 711.426 36.5462C711.954 36.5462 712.318 36.3416 712.511 35.9324C712.704 35.5233 712.812 34.8414 712.829 33.8868L715.869 34.063C715.886 34.1993 715.892 34.3868 715.892 34.6254C715.892 36.0745 715.494 37.1541 714.704 37.8701C713.915 38.586 712.795 38.944 711.346 38.944C709.607 38.944 708.391 38.3985 707.692 37.3075C706.993 36.2165 706.647 34.5345 706.647 32.2503V29.517C706.647 27.1645 707.01 25.454 707.732 24.3689C708.454 23.2892 709.692 22.7493 711.449 22.7493C712.659 22.7493 713.585 22.971 714.233 23.4142C714.881 23.8573 715.335 24.5448 715.602 25.4825C715.864 26.4201 716 27.7158 716 29.3636V32.0457H710.096V32.0513ZM710.545 25.4598C710.369 25.6815 710.249 26.045 710.187 26.5452C710.124 27.0452 710.096 27.8124 710.096 28.8294V29.9546H712.676V28.8294C712.676 27.8236 712.642 27.0622 712.573 26.5452C712.505 26.028 712.38 25.6587 712.204 25.4484C712.028 25.2382 711.75 25.1302 711.375 25.1302C710.999 25.1245 710.721 25.2382 710.545 25.4598ZM647.266 31.7559L643.254 17.2715H646.754L648.158 23.8347C648.516 25.4542 648.777 26.8293 648.948 27.9714H649.05C649.169 27.1531 649.431 25.7837 649.84 23.8573L651.295 17.2657H654.795L650.738 31.7559V38.7054H647.266V31.7559ZM675.03 23.0449V38.6997H672.274L671.967 36.7848H671.893C671.143 38.2338 670.018 38.9555 668.524 38.9555C667.484 38.9555 666.717 38.6145 666.222 37.9326C665.728 37.2507 665.484 36.1882 665.484 34.7392V23.0449H669.007V34.5402C669.007 35.2392 669.081 35.7393 669.234 36.0347C669.387 36.3302 669.643 36.4836 670.001 36.4836C670.308 36.4836 670.603 36.3926 670.882 36.2052C671.16 36.0177 671.37 35.7789 671.507 35.4892V23.0447L675.03 23.0449ZM693.111 23.0449V38.6997H690.355L690.048 36.7848H689.975C689.225 38.2338 688.099 38.9555 686.605 38.9555C685.565 38.9555 684.798 38.6145 684.304 37.9326C683.809 37.2507 683.565 36.1882 683.565 34.7392V23.0449H687.088V34.5402C687.088 35.2392 687.162 35.7393 687.315 36.0347C687.469 36.3302 687.724 36.4836 688.082 36.4836C688.389 36.4836 688.685 36.3926 688.963 36.2052C689.242 36.0177 689.452 35.7789 689.588 35.4892V23.0447L693.111 23.0449Z" fill="white"/>
<path fill-rule="evenodd" clip-rule="evenodd" d="M684.61 20.1071H681.11V38.6997H677.661V20.1071H674.161V17.2716H684.605V20.1071H684.61ZM704.777 25.5507C704.561 24.562 704.22 23.846 703.743 23.4028C703.266 22.9595 702.612 22.738 701.777 22.738C701.129 22.738 700.527 22.9198 699.964 23.2892C699.402 23.6528 698.97 24.1359 698.663 24.7325H698.635V16.4816H695.237V38.7054H698.146L698.504 37.2224H698.578C698.85 37.7508 699.26 38.1657 699.805 38.4724C700.351 38.7793 700.953 38.9327 701.618 38.9327C702.811 38.9327 703.686 38.3815 704.249 37.2848C704.811 36.1882 705.09 34.4721 705.09 32.1366V29.659C705.096 27.9089 704.987 26.5395 704.777 25.5508V25.5507ZM701.544 31.9377C701.544 33.0799 701.498 33.972 701.402 34.6198C701.311 35.2677 701.152 35.7279 700.93 36.0007C700.709 36.2734 700.413 36.4098 700.038 36.4098C699.748 36.4098 699.481 36.3416 699.231 36.2052C698.987 36.0688 698.782 35.8643 698.629 35.5914V26.6986C698.748 26.2724 698.953 25.9258 699.243 25.6531C699.532 25.3803 699.845 25.2439 700.186 25.2439C700.544 25.2439 700.822 25.3859 701.015 25.6643C701.209 25.9429 701.345 26.4201 701.425 27.0792C701.499 27.7441 701.538 28.6874 701.538 29.9147V31.9377H701.544Z" fill="white"/>
<path d="M830.477 26.4172V36.8453C830.477 37.0143 830.41 37.1764 830.29 37.296C830.171 37.4155 830.009 37.4827 829.84 37.4827H826.549C826.38 37.4826 826.218 37.4154 826.098 37.2959C825.979 37.1764 825.912 37.0143 825.912 36.8453V19.8835C825.912 19.7144 825.979 19.5523 826.098 19.4328C826.218 19.3133 826.38 19.2461 826.549 19.2461H829.594C829.763 19.2461 829.925 19.3133 830.045 19.4328C830.164 19.5523 830.231 19.7144 830.231 19.8835V22.2721C830.231 22.2721 831.32 18.8648 834.551 18.8648C834.551 18.8648 837.747 18.4784 839.046 22.0262C839.046 22.0262 840.135 18.8648 843.436 18.8648C843.436 18.8648 848.345 18.5728 848.345 23.6539L848.382 26.4523V36.8804C848.382 37.0495 848.315 37.2116 848.196 37.3311C848.076 37.4506 847.914 37.5178 847.745 37.5178H844.454C844.285 37.5177 844.123 37.4505 844.003 37.331C843.884 37.2115 843.817 37.0494 843.817 36.8804L843.787 25.5039C843.88 22.9278 841.797 23.1152 841.797 23.1152C839.175 23.1621 839.427 26.4523 839.427 26.4523V36.8804C839.427 37.0495 839.36 37.2116 839.24 37.3311C839.121 37.4506 838.959 37.5178 838.79 37.5178H835.499C835.33 37.5177 835.168 37.4505 835.048 37.331C834.929 37.2115 834.862 37.0494 834.862 36.8804V25.7613C834.862 25.7613 835.054 23.0916 832.713 23.0916C832.713 23.0916 830.395 22.7872 830.477 26.4172V26.4172ZM915.308 26.386V36.8138C915.308 36.9828 915.241 37.1449 915.122 37.2644C915.002 37.3839 914.84 37.4511 914.671 37.4512L911.249 37.5175C911.08 37.5174 910.918 37.4502 910.798 37.3307C910.679 37.2112 910.611 37.0492 910.611 36.8801V25.7613C910.611 25.7613 910.804 23.0916 908.463 23.0916C908.463 23.0916 906.227 22.9814 906.227 27.1672V36.845C906.227 37.014 906.16 37.1761 906.04 37.2956C905.921 37.4151 905.759 37.4823 905.59 37.4824H902.298C902.129 37.4823 901.967 37.4151 901.848 37.2956C901.728 37.1761 901.661 37.014 901.661 36.845V19.8835C901.661 19.7145 901.728 19.5524 901.848 19.4329C901.967 19.3134 902.129 19.2462 902.298 19.2461H905.344C905.513 19.2461 905.675 19.3133 905.794 19.4328C905.914 19.5523 905.981 19.7144 905.981 19.8835V22.2721C905.981 22.2721 907.07 18.8648 910.3 18.8648C910.3 18.8648 913.761 18.3395 914.927 21.9602C914.927 21.9599 915.308 22.7069 915.308 26.386ZM891.546 18.7945C887.338 18.7945 883.926 22.3424 883.926 28.3141C883.926 33.5717 886.56 37.8336 891.546 37.8336C896.252 37.8336 899.167 33.5717 899.167 28.3141C899.167 22.4478 895.755 18.7945 891.546 18.7945V18.7945ZM894.203 28.5248C894.203 30.773 893.922 31.9673 893.922 31.9673C893.522 34.3439 891.797 34.3473 891.543 34.3347C891.269 34.3456 889.529 34.3209 889.169 31.9673C889.169 31.9673 888.888 30.773 888.888 28.5248V28.1502C888.888 25.9021 889.169 24.7077 889.169 24.7077C889.529 22.3542 891.269 22.3295 891.543 22.3401C891.797 22.3275 893.522 22.3306 893.922 24.7077C893.922 24.7077 894.203 25.9021 894.203 28.1502V28.5248ZM882.016 22.2485V19.8149C882.016 19.6459 881.949 19.4838 881.829 19.3643C881.71 19.2448 881.548 19.1776 881.379 19.1775H870.501C870.332 19.1775 870.17 19.2447 870.05 19.3642C869.931 19.4837 869.863 19.6459 869.863 19.8149V22.2297C869.864 22.3987 869.931 22.5608 870.05 22.6803C870.17 22.7998 870.332 22.867 870.501 22.8671H876.175L869.459 32.6128C869.459 32.6128 869.194 33.008 869.203 33.4444V36.4089C869.203 36.4089 869.159 37.4253 870.311 36.8355C870.311 36.8355 872.358 35.5984 875.79 35.5984C875.79 35.5984 879.18 35.5563 881.44 36.942C881.44 36.942 882.378 37.3686 882.378 36.4305V33.8502C882.378 33.8502 882.463 33.1673 881.568 32.741C881.568 32.741 878.967 31.3123 875.556 31.5467L882.016 22.2485ZM823.372 34.4493L822.341 32.8807C822.014 32.295 822.037 31.6391 822.037 31.6391V24.4031C822.178 18.1504 815.248 18.6891 815.248 18.6891C809.087 18.6891 808.177 23.4847 808.177 23.4847C807.92 24.4489 808.667 24.4722 808.667 24.4722L811.677 24.7777C811.677 24.7777 812.191 24.8952 812.378 24.284C812.378 24.284 812.774 22.1918 814.991 22.1918C817.403 22.1918 817.378 24.2626 817.378 24.2626V25.9962C812.563 26.1572 810.331 27.4943 810.331 27.4943C807.358 29.1805 807.545 32.5294 807.545 32.5294C807.545 37.9857 812.743 37.7513 812.743 37.7513C816.067 37.7513 818.033 35.316 818.033 35.316C818.619 36.3468 819.696 37.3298 819.696 37.3298C820.235 37.9143 820.796 37.4236 820.796 37.4236L823.231 35.3396C823.769 34.9411 823.372 34.4493 823.372 34.4493ZM814.365 34.3819C812.801 34.3819 812.22 32.8275 812.48 31.2999C812.739 29.7723 814.089 28.5718 817.378 28.6069V29.5357C817.495 33.593 815.667 34.3819 814.365 34.3819ZM867.105 34.4493L866.075 32.8807C865.747 32.295 865.77 31.6391 865.77 31.6391V24.4031C865.911 18.1504 858.981 18.6891 858.981 18.6891C852.82 18.6891 851.91 23.4847 851.91 23.4847C851.653 24.4489 852.4 24.4722 852.4 24.4722L855.41 24.7777C855.41 24.7777 855.924 24.8952 856.111 24.284C856.111 24.284 856.507 22.1918 858.724 22.1918C861.136 22.1918 861.111 24.2626 861.111 24.2626V25.9962C856.296 26.1572 854.064 27.4943 854.064 27.4943C851.091 29.1805 851.278 32.5294 851.278 32.5294C851.278 37.9857 856.475 37.7513 856.475 37.7513C859.8 37.7513 861.766 35.316 861.766 35.316C862.352 36.3468 863.428 37.3298 863.428 37.3298C863.967 37.9143 864.529 37.4236 864.529 37.4236L866.964 35.3396C867.502 34.9411 867.105 34.4493 867.105 34.4493V34.4493ZM858.098 34.3819C856.534 34.3819 855.953 32.8275 856.213 31.2999C856.472 29.7723 857.822 28.5718 861.111 28.6069V29.5357C861.228 33.593 859.4 34.3819 858.098 34.3819Z" fill="white"/>
<path d="M875.391 48.1457C875.391 48.1457 875.116 48.6249 875.454 48.7319C875.454 48.7319 875.836 48.8812 876.313 48.4388C876.313 48.4388 879.787 45.4024 879.871 39.8742C879.871 39.8742 879.897 39.1837 879.62 38.9948C879.62 38.9948 878.531 38.0315 874.617 38.3246C874.617 38.3246 871.204 38.555 869.341 40.2094C869.341 40.2094 869.174 40.3558 869.174 40.5441C869.174 40.5441 869.134 40.9507 870.158 40.7745C870.158 40.7745 873.57 40.2926 875.6 40.5441C875.6 40.5441 876.647 40.6697 876.94 41.0261C876.94 41.0261 877.422 41.424 877.171 42.7428C877.171 42.7434 876.479 46.0937 875.391 48.1457V48.1457Z" fill="white"/>
<path d="M874.703 42.8435C874.703 42.8435 875.213 43.5039 874.39 44.0736C874.39 44.0736 865.606 51.1019 850.857 51.1019C850.857 51.1019 835.674 51.8511 822.997 40.3293C822.997 40.3293 822.552 39.9389 822.828 39.5761C822.828 39.5761 823.075 39.2423 823.713 39.6053C823.713 39.6053 835.639 47.0386 851.302 47.0386C851.302 47.0386 862.188 47.4601 873.355 42.6828C873.355 42.6828 874.245 42.2216 874.703 42.8435Z" fill="white"/>
<path d="M1020.46 9.72479H1021.46C1024.91 9.79996 1028.31 11.1906 1030.76 13.6523C1029.86 14.5731 1028.93 15.4564 1028.05 16.3772C1026.68 15.1369 1025.03 14.1785 1023.22 13.8402C1020.55 13.2765 1017.68 13.7839 1015.44 15.306C1013 16.9033 1011.35 19.6094 1010.99 22.5033C1010.59 25.3597 1011.4 28.3664 1013.26 30.5839C1015.05 32.745 1017.77 34.098 1020.59 34.192C1023.22 34.3423 1025.97 33.5342 1027.88 31.6926C1029.39 30.396 1030.08 28.4228 1030.31 26.506C1027.19 26.506 1024.07 26.5248 1020.95 26.506V22.6349H1034.08C1034.76 26.7879 1033.78 31.4671 1030.63 34.4363C1028.52 36.541 1025.61 37.7812 1022.64 38.0255C1019.76 38.3074 1016.8 37.7624 1014.24 36.3718C1011.18 34.7369 1008.73 31.9745 1007.53 28.7235C1006.4 25.7356 1006.38 22.353 1007.44 19.3463C1008.4 16.6027 1010.24 14.1785 1012.6 12.4872C1014.88 10.8147 1017.64 9.89392 1020.46 9.72479Z" fill="white"/>
<path d="M1095.82 10.7018H1099.84V37.5367C1098.5 37.5367 1097.15 37.5555 1095.82 37.5179C1095.83 28.5918 1095.82 19.6468 1095.82 10.7018V10.7018Z" fill="white"/>
<path d="M1043.03 20.0041C1045.51 19.5343 1048.2 20.0605 1050.24 21.545C1052.11 22.8605 1053.4 24.9276 1053.8 27.1826C1054.3 29.7947 1053.67 32.6511 1051.97 34.7182C1050.15 37.0296 1047.16 38.2699 1044.25 38.082C1041.58 37.9316 1038.99 36.5974 1037.41 34.4175C1035.62 32.0122 1035.19 28.7048 1036.17 25.886C1037.15 22.8605 1039.91 20.5491 1043.03 20.0041V20.0041ZM1043.59 23.5746C1042.58 23.8377 1041.64 24.4202 1040.96 25.2471C1039.14 27.4269 1039.25 30.9786 1041.26 33.0081C1042.41 34.1732 1044.14 34.7182 1045.73 34.3987C1047.22 34.1357 1048.52 33.1397 1049.23 31.8242C1050.47 29.588 1050.11 26.5061 1048.22 24.7585C1046.99 23.631 1045.21 23.1612 1043.59 23.5746Z" fill="white"/>
<path d="M1062.95 20.0037C1065.79 19.4587 1068.89 20.248 1071.01 22.24C1074.47 25.3406 1074.84 31.1473 1071.89 34.7178C1070.11 36.9728 1067.21 38.2131 1064.36 38.0815C1061.63 38.0064 1058.95 36.6534 1057.33 34.4171C1055.51 31.9554 1055.11 28.5728 1056.15 25.6977C1057.18 22.7661 1059.89 20.5299 1062.95 20.0037V20.0037ZM1063.51 23.5742C1062.5 23.8373 1061.56 24.4198 1060.88 25.2279C1059.08 27.3701 1059.15 30.8654 1061.09 32.9138C1062.23 34.1352 1064.02 34.7366 1065.67 34.3983C1067.14 34.1164 1068.45 33.1393 1069.17 31.8238C1070.39 29.5688 1070.03 26.4869 1068.12 24.7393C1066.89 23.6118 1065.11 23.1608 1063.51 23.5742Z" fill="white"/>
<path d="M1079.84 21.0936C1082 19.7405 1084.88 19.3647 1087.21 20.5298C1087.94 20.8493 1088.54 21.3942 1089.13 21.9392C1089.14 21.4318 1089.13 20.9056 1089.14 20.3795C1090.4 20.3983 1091.66 20.3795 1092.94 20.3983V36.9727C1092.92 39.4721 1092.28 42.1217 1090.48 43.9445C1088.51 45.9553 1085.48 46.5754 1082.76 46.162C1079.84 45.7298 1077.31 43.6063 1076.18 40.919C1077.31 40.3741 1078.49 39.9419 1079.65 39.4345C1080.31 40.9754 1081.65 42.2908 1083.32 42.5915C1084.99 42.8922 1086.93 42.4788 1088.02 41.0882C1089.18 39.66 1089.18 37.7056 1089.13 35.958C1088.26 36.8036 1087.27 37.5553 1086.06 37.8372C1083.45 38.57 1080.58 37.668 1078.56 35.9016C1076.53 34.1352 1075.33 31.4103 1075.45 28.7043C1075.5 25.6412 1077.23 22.6909 1079.84 21.0936V21.0936ZM1083.73 23.4989C1082.59 23.6868 1081.51 24.3258 1080.78 25.209C1079.02 27.3137 1079.02 30.6774 1080.8 32.7446C1081.82 33.966 1083.45 34.6425 1085.03 34.4734C1086.51 34.3231 1087.89 33.3835 1088.62 32.0868C1089.86 29.8882 1089.65 26.9003 1087.98 24.9835C1086.95 23.7996 1085.29 23.217 1083.73 23.4989V23.4989Z" fill="white"/>
<path d="M1104.67 22.0522C1106.92 19.9475 1110.4 19.2334 1113.29 20.3421C1116.04 21.3757 1117.78 23.9878 1118.67 26.675C1114.59 28.3663 1110.53 30.0388 1106.45 31.7301C1107.02 32.8012 1107.88 33.7784 1109.05 34.173C1110.68 34.7556 1112.63 34.5489 1114.01 33.4589C1114.55 33.0455 1114.98 32.5005 1115.4 31.9744C1116.43 32.6697 1117.46 33.3462 1118.5 34.0415C1117.03 36.2401 1114.57 37.7811 1111.92 38.0254C1108.99 38.3824 1105.87 37.2549 1103.97 34.9623C1100.85 31.3542 1101.15 25.3032 1104.67 22.0522V22.0522ZM1106.68 25.5287C1106.04 26.4495 1105.78 27.577 1105.79 28.6858C1108.52 27.5582 1111.24 26.4307 1113.97 25.2844C1113.52 24.2321 1112.43 23.5931 1111.32 23.424C1109.53 23.1046 1107.67 24.0629 1106.68 25.5287V25.5287Z" fill="white"/>
<path d="M1328.4 26.6905V24.4253H1325.58V20.9039L1325.49 20.933L1322.85 21.7414L1322.8 21.7572V24.4254H1318.63V22.939C1318.63 22.2469 1318.78 21.7172 1319.09 21.364C1319.39 21.015 1319.82 20.8376 1320.37 20.8376C1320.77 20.8376 1321.18 20.9311 1321.6 21.1157L1321.7 21.162V18.7765L1321.65 18.7586C1321.27 18.6198 1320.74 18.5499 1320.09 18.5499C1319.27 18.5499 1318.52 18.7284 1317.87 19.0823C1317.22 19.4366 1316.71 19.9425 1316.35 20.5856C1316 21.2281 1315.81 21.97 1315.81 22.7911V24.4253H1313.86V26.6905H1315.81V36.2331H1318.63V26.6905H1322.8V32.7547C1322.8 35.2522 1323.97 36.5178 1326.3 36.5178C1326.68 36.5178 1327.08 36.4731 1327.49 36.3855C1327.91 36.2956 1328.19 36.2057 1328.36 36.1098L1328.4 36.0879V33.8018L1328.28 33.8774C1328.13 33.9791 1327.94 34.0622 1327.72 34.124C1327.49 34.1869 1327.31 34.2184 1327.16 34.2184C1326.62 34.2184 1326.22 34.0718 1325.97 33.7823C1325.71 33.4903 1325.58 32.9796 1325.58 32.2651V26.6905H1328.4ZM1307.58 34.2188C1306.56 34.2188 1305.75 33.8804 1305.18 33.2138C1304.61 32.5439 1304.32 31.5887 1304.32 30.3751C1304.32 29.1231 1304.61 28.1431 1305.18 27.4613C1305.75 26.784 1306.55 26.4403 1307.55 26.4403C1308.53 26.4403 1309.3 26.7686 1309.86 27.4166C1310.42 28.068 1310.7 29.0401 1310.7 30.3067C1310.7 31.589 1310.44 32.5739 1309.91 33.2327C1309.39 33.8866 1308.6 34.2188 1307.58 34.2188V34.2188ZM1307.7 24.1409C1305.75 24.1409 1304.21 24.7114 1303.1 25.8366C1302 26.962 1301.44 28.5193 1301.44 30.4657C1301.44 32.3145 1301.99 33.8015 1303.07 34.8849C1304.14 35.9686 1305.61 36.5176 1307.42 36.5176C1309.3 36.5176 1310.82 35.9391 1311.92 34.7983C1313.02 33.6587 1313.58 32.1161 1313.58 30.2152C1313.58 28.3375 1313.06 26.8394 1312.02 25.7632C1310.99 24.6866 1309.54 24.1409 1307.7 24.1409V24.1409ZM1296.91 24.1409C1295.59 24.1409 1294.49 24.4796 1293.65 25.1476C1292.81 25.8195 1292.38 26.7008 1292.38 27.7672C1292.38 28.3215 1292.48 28.814 1292.66 29.2316C1292.84 29.6506 1293.12 30.0195 1293.5 30.3292C1293.87 30.6363 1294.45 30.958 1295.21 31.2853C1295.85 31.5488 1296.33 31.7717 1296.63 31.9474C1296.93 32.1196 1297.14 32.2927 1297.25 32.4612C1297.37 32.6262 1297.43 32.852 1297.43 33.1306C1297.43 33.9239 1296.83 34.3099 1295.61 34.3099C1295.16 34.3099 1294.64 34.2152 1294.08 34.0285C1293.51 33.8447 1292.98 33.5755 1292.5 33.2304L1292.38 33.1466V35.8537L1292.43 35.8737C1292.83 36.0573 1293.33 36.2122 1293.92 36.3341C1294.51 36.456 1295.04 36.5181 1295.51 36.5181C1296.95 36.5181 1298.1 36.1777 1298.95 35.5057C1299.8 34.8292 1300.23 33.9271 1300.23 32.8238C1300.23 32.0279 1300 31.3454 1299.54 30.7949C1299.09 30.2489 1298.3 29.7477 1297.2 29.3046C1296.32 28.9532 1295.76 28.6616 1295.53 28.4377C1295.31 28.2214 1295.2 27.9155 1295.2 27.5281C1295.2 27.1847 1295.34 26.9096 1295.62 26.6868C1295.91 26.463 1296.31 26.3491 1296.82 26.3491C1297.29 26.3491 1297.77 26.4231 1298.24 26.5681C1298.72 26.7131 1299.14 26.9074 1299.49 27.145L1299.6 27.2235V24.6556L1299.56 24.6366C1299.24 24.4984 1298.81 24.3802 1298.3 24.2843C1297.78 24.189 1297.32 24.1409 1296.91 24.1409V24.1409ZM1285.05 34.2188C1284.03 34.2188 1283.23 33.8804 1282.66 33.2138C1282.09 32.5439 1281.8 31.589 1281.8 30.3751C1281.8 29.1231 1282.09 28.1431 1282.66 27.4613C1283.23 26.784 1284.03 26.4403 1285.03 26.4403C1286.01 26.4403 1286.78 26.7686 1287.34 27.4166C1287.9 28.068 1288.18 29.0401 1288.18 30.3067C1288.18 31.589 1287.91 32.5739 1287.39 33.2327C1286.87 33.8866 1286.08 34.2188 1285.05 34.2188V34.2188ZM1285.18 24.1409C1283.23 24.1409 1281.69 24.7114 1280.58 25.8366C1279.48 26.962 1278.92 28.5193 1278.92 30.4657C1278.92 32.3152 1279.47 33.8015 1280.54 34.8849C1281.62 35.9686 1283.08 36.5176 1284.9 36.5176C1286.78 36.5176 1288.3 35.9391 1289.4 34.7983C1290.5 33.6587 1291.06 32.1161 1291.06 30.2152C1291.06 28.3375 1290.54 26.8394 1289.5 25.7632C1288.47 24.6866 1287.01 24.1409 1285.18 24.1409V24.1409ZM1274.65 26.4702V24.4253H1271.88V36.2329H1274.65V30.1929C1274.65 29.1658 1274.89 28.322 1275.35 27.6847C1275.8 27.055 1276.41 26.7359 1277.14 26.7359C1277.39 26.7359 1277.67 26.7772 1277.98 26.8588C1278.28 26.9399 1278.5 27.028 1278.63 27.1207L1278.74 27.2053V24.4051L1278.7 24.3858C1278.44 24.2759 1278.07 24.2205 1277.61 24.2205C1276.91 24.2205 1276.29 24.4447 1275.75 24.8863C1275.28 25.2744 1274.94 25.8066 1274.68 26.4702H1274.65ZM1266.9 24.1409C1265.63 24.1409 1264.49 24.4141 1263.53 24.9527C1262.56 25.4926 1261.81 26.2633 1261.3 27.2434C1260.79 28.2211 1260.53 29.3632 1260.53 30.6368C1260.53 31.7524 1260.78 32.7762 1261.28 33.6785C1261.77 34.5824 1262.47 35.2894 1263.35 35.7799C1264.24 36.2696 1265.26 36.518 1266.39 36.518C1267.71 36.518 1268.84 36.2541 1269.74 35.7336L1269.78 35.7127V33.1681L1269.66 33.2533C1269.25 33.5515 1268.8 33.7894 1268.3 33.9609C1267.81 34.1322 1267.36 34.2188 1266.97 34.2188C1265.88 34.2188 1265.01 33.8778 1264.37 33.2055C1263.74 32.5323 1263.41 31.587 1263.41 30.3974C1263.41 29.2004 1263.75 28.2308 1264.41 27.5154C1265.07 26.8021 1265.95 26.4403 1267.02 26.4403C1267.93 26.4403 1268.82 26.7494 1269.66 27.3599L1269.78 27.4445V24.7633L1269.74 24.7422C1269.42 24.5649 1268.99 24.4185 1268.46 24.3074C1267.92 24.1967 1267.4 24.1409 1266.9 24.1409V24.1409ZM1258.62 24.4254H1255.84V36.2329H1258.62V24.4254V24.4254ZM1257.26 19.3954C1256.8 19.3954 1256.4 19.551 1256.08 19.8594C1255.75 20.1686 1255.58 20.558 1255.58 21.0175C1255.58 21.4698 1255.75 21.852 1256.07 22.1531C1256.39 22.4532 1256.79 22.6053 1257.26 22.6053C1257.72 22.6053 1258.13 22.4532 1258.45 22.1536C1258.78 21.852 1258.95 21.4699 1258.95 21.0175C1258.95 20.5741 1258.79 20.1887 1258.47 19.8718C1258.15 19.5556 1257.74 19.3954 1257.26 19.3954ZM1250.33 23.5543V36.2329H1253.16V19.7568H1249.24L1244.25 31.9948L1239.42 19.7568H1235.33V36.2328H1238V23.553H1238.09L1243.2 36.2329H1245.21L1250.24 23.5543H1250.33V23.5543Z" fill="white"/>
<path d="M1212.67 27.3171H1199.6V14.251H1212.67V27.3171Z" fill="white"/>
<path d="M1227.09 27.3171H1214.02V14.251H1227.09V27.3171Z" fill="white"/>
<path d="M1212.67 41.7485H1199.6V28.6826H1212.67V41.7485Z" fill="white"/>
<path d="M1227.09 41.7485H1214.02V28.6826H1227.09V41.7485Z" fill="white"/>
</g>
</svg>
