<svg width="36" height="37" viewBox="0 0 36 37" fill="none" xmlns="http://www.w3.org/2000/svg">
<path opacity="0.2" d="M29.727 17.9203L25.8758 10.1255H10.1258L6.2745 17.9204C6.18313 18.1054 6.14437 18.3119 6.16248 18.5175C6.18058 18.723 6.25485 18.9196 6.37716 19.0857L18.0008 34.8755L29.6243 19.0857C29.7466 18.9195 29.8209 18.7229 29.839 18.5174C29.8571 18.3119 29.8183 18.1053 29.727 17.9203ZM18.0008 21.3755C17.4445 21.3755 16.9007 21.2105 16.4382 20.9015C15.9757 20.5924 15.6152 20.1532 15.4024 19.6393C15.1895 19.1254 15.1338 18.5599 15.2423 18.0143C15.3508 17.4687 15.6187 16.9676 16.012 16.5742C16.4054 16.1809 16.9065 15.913 17.4521 15.8045C17.9976 15.696 18.5631 15.7517 19.0771 15.9646C19.591 16.1774 20.0302 16.5379 20.3393 17.0004C20.6483 17.463 20.8133 18.0067 20.8133 18.563C20.8133 18.9323 20.7405 19.2981 20.5992 19.6393C20.4578 19.9805 20.2507 20.2906 19.9895 20.5517C19.7283 20.8129 19.4183 21.0201 19.0771 21.1614C18.7358 21.3027 18.3701 21.3755 18.0008 21.3755Z" fill="#0B63E5"/>
<path d="M18.0007 21.3755L18.0007 34.8755" stroke="#0B63E5" stroke-width="2.5" stroke-linecap="round" stroke-linejoin="round"/>
<path d="M18.0007 21.3755C19.554 21.3755 20.8132 20.1163 20.8132 18.563C20.8132 17.0097 19.554 15.7505 18.0007 15.7505C16.4474 15.7505 15.1882 17.0097 15.1882 18.563C15.1882 20.1163 16.4474 21.3755 18.0007 21.3755Z" stroke="#0B63E5" stroke-width="2.5" stroke-linecap="round" stroke-linejoin="round"/>
<path d="M10.1257 10.1255V4.50048C10.1257 4.20211 10.2443 3.91596 10.4552 3.70499C10.6662 3.49401 10.9524 3.37548 11.2507 3.37548H24.7507C25.0491 3.37548 25.3352 3.49401 25.5462 3.70499C25.7572 3.91596 25.8757 4.20211 25.8757 4.50048V10.1255" stroke="#0B63E5" stroke-width="2.5" stroke-linecap="round" stroke-linejoin="round"/>
<path d="M10.1258 10.1255L6.27452 17.9204C6.18313 18.1054 6.14437 18.3119 6.16247 18.5175C6.18057 18.723 6.25483 18.9195 6.37714 19.0857L18.0008 34.8755L29.6243 19.0856C29.7466 18.9195 29.8209 18.7229 29.839 18.5174C29.8571 18.3119 29.8183 18.1053 29.727 17.9204L25.8758 10.1255H10.1258Z" stroke="#0B63E5" stroke-width="2.5" stroke-linecap="round" stroke-linejoin="round"/>
</svg>
